<?xml version="1.0" encoding="iso-8859-1"?>
<!-- Generator: Adobe Illustrator 21.1.0, SVG Export Plug-In . SVG Version: 6.00 Build 0)  -->
<svg version="1.1" id="Calque_1" xmlns="http://www.w3.org/2000/svg" xmlns:xlink="http://www.w3.org/1999/xlink" x="0px" y="0px"
	 viewBox="0 0 1500 500" style="enable-background:new 0 0 1500 500;" xml:space="preserve">
<g id="Objet_dynamique_vectoriel">
	<g>
		<g>
			<path style="fill:#FFFFFF;" d="M183.161,80.491C85.372,80.491,6.1,159.762,6.1,257.551c0,51.854,22.292,98.499,57.814,130.882
				c-1.919-6.171-2.952-12.731-2.952-19.533c0-36.294,29.42-65.714,65.713-65.714s65.713,29.42,65.713,65.714
				c0,28.866-18.621,53.368-44.502,62.194c11.401,2.304,23.197,3.518,35.276,3.518c97.789,0,177.061-79.272,177.061-177.061
				S280.95,80.491,183.161,80.491"/>
		</g>
	</g>
</g>
<g>
	<g>
		<path style="fill:#FFFFFF;" d="M450.038,299.501c7.63,19.676,23.291,31.323,44.574,31.323c24.094,0,36.544-14.056,36.544-31.524
			c0-20.279-11.646-28.311-36.343-39.154c-21.484-9.235-35.339-17.267-35.339-37.948c0-18.272,14.055-31.323,33.131-31.323
			c14.858,0,26.503,6.024,33.129,18.272l-3.614,2.01c-6.024-10.843-15.863-16.265-29.516-16.265
			c-16.866,0-28.914,11.044-28.914,27.105c0,19.076,13.252,25.902,33.129,34.536c25.5,11.243,38.551,20.078,38.551,42.767
			c0,21.485-15.461,35.539-40.759,35.539c-22.688,0-40.558-11.845-48.389-33.732L450.038,299.501z"/>
		<path style="fill:#FFFFFF;" d="M494.613,342.338c-26.439,0-46.651-14.106-55.451-38.705l-2.392-6.685l17.472-7.35l2.79,7.192
			c6.732,17.36,19.727,26.536,37.581,26.536c18.186,0,29.043-8.982,29.043-24.025c0-14.709-6.253-21.046-31.857-32.286
			c-21.765-9.357-39.824-19.206-39.824-44.816c0-22.133,17.467-38.822,40.629-38.822c17.872,0,31.98,7.886,39.726,22.203
			l3.527,6.518l-16.648,9.26l-3.643-6.559c-4.705-8.463-12.001-12.407-22.962-12.407c-12.808,0-21.413,7.877-21.413,19.604
			c0,13.851,8.282,18.825,28.617,27.658c24.415,10.766,43.062,21.245,43.062,49.647
			C542.871,325.443,523.928,342.338,494.613,342.338z"/>
	</g>
	<g>
		<path style="fill:#FFFFFF;" d="M605.64,192.882h4.217v93.768h89.351v-93.768h4.216v139.949h-4.216v-42.166h-89.351v42.166h-4.217
			V192.882z"/>
		<polygon style="fill:#FFFFFF;" points="710.922,340.331 691.708,340.331 691.708,298.166 617.357,298.166 617.357,340.331 
			598.14,340.331 598.14,185.383 617.357,185.383 617.357,279.151 691.708,279.151 691.708,185.383 710.922,185.383 		"/>
	</g>
	<g>
		<path style="fill:#FFFFFF;" d="M826.299,192.882h3.614l55.618,139.949h-4.417l-16.866-42.367h-72.283l-16.866,42.367h-4.417
			L826.299,192.882z M862.642,286.45l-34.535-87.342l-34.535,87.342H862.642z"/>
		<path style="fill:#FFFFFF;" d="M830.746,185.383h4.258l61.578,154.948h-20.555l-16.865-42.367h-62.11l-16.865,42.367h-20.555
			l61.577-154.948h4.261 M804.601,278.949h47.011l-23.505-59.446L804.601,278.949z"/>
	</g>
	<g>
		<path style="fill:#FFFFFF;" d="M952.792,192.882h39.355c43.972,0,72.283,28.112,72.283,70.075
			c0,41.965-27.909,69.874-72.082,69.874h-39.556V192.882z M991.946,328.817c42.166,0,68.065-26.103,68.065-65.859
			c0-39.754-25.899-66.058-68.266-66.058H957.01v131.918H991.946z"/>
		<path style="fill:#FFFFFF;" d="M992.348,340.331h-47.055V185.383h46.853c47.72,0,79.784,31.173,79.784,77.574
			C1071.93,309.237,1039.949,340.331,992.348,340.331z M964.509,321.318h27.436c37.357,0,60.565-22.364,60.565-58.362
			c0-36.121-23.284-58.558-60.766-58.558h-27.236V321.318z"/>
	</g>
	<g>
		<path style="fill:#FFFFFF;" d="M1193.931,190.875c39.955,0,71.479,31.122,71.479,72.082c0,41.161-31.524,71.881-71.479,71.881
			c-40.159,0-71.681-30.72-71.681-71.881C1122.25,221.997,1153.772,190.875,1193.931,190.875z M1193.931,330.824
			c38.551,0,67.264-29.115,67.264-67.867c0-38.149-29.316-68.065-67.264-68.065c-37.948,0-67.465,29.916-67.465,68.065
			C1126.466,301.709,1155.38,330.824,1193.931,330.824z"/>
		<path style="fill:#FFFFFF;" d="M1193.93,342.338c-44.4,0-79.179-34.867-79.179-79.381c0-44.625,34.779-79.58,79.179-79.58
			c44.288,0,78.98,34.955,78.98,79.58C1272.91,307.471,1238.218,342.338,1193.93,342.338z M1193.93,202.392
			c-33.625,0-59.964,26.603-59.964,60.565c0,34.416,25.78,60.369,59.964,60.369c34.07,0,59.765-25.953,59.765-60.369
			C1253.695,228.995,1227.444,202.392,1193.93,202.392z"/>
	</g>
	<g>
		<g>
			<path style="fill:#FFFFFF;" d="M1308.776,192.882h4.418l50.597,133.324l31.561-83.161l2.192,5.764l-31.945,84.022h-3.614
				L1308.776,192.882z"/>
			<polyline style="fill:#FFFFFF;" points="1361.129,340.331 1356.814,340.331 1297.901,185.383 1318.37,185.383 1363.792,305.071 
				1395.346,221.929 1405.567,248.81 1370.773,340.331 1366.455,340.331 			"/>
		</g>
		<g>
			<path style="fill:#FFFFFF;" d="M1374.032,192.882h4.417l50.597,133.324l50.6-133.324h4.417l-53.208,139.949h-3.615
				L1374.032,192.882z"/>
			<polyline style="fill:#FFFFFF;" points="1426.381,340.331 1422.069,340.331 1363.157,185.383 1383.625,185.383 1429.044,305.071 
				1474.469,185.383 1494.938,185.383 1436.025,340.331 1431.704,340.331 			"/>
		</g>
	</g>
</g>
</svg>
